<?xml version="1.0" standalone="no"?><!DOCTYPE svg PUBLIC "-//W3C//DTD SVG 1.1//EN" "http://www.w3.org/Graphics/SVG/1.1/DTD/svg11.dtd"><svg t="1753796423341" class="icon" viewBox="0 0 1024 1024" version="1.1" xmlns="http://www.w3.org/2000/svg" p-id="12674" xmlns:xlink="http://www.w3.org/1999/xlink" width="200" height="200"><path d="M512 1024C229.248 1024 0 794.752 0 512S229.248 0 512 0s512 229.248 512 512-229.248 512-512 512z m0-58.88c250.282667 0 453.12-202.837333 453.12-453.12S762.325333 58.88 512 58.88 58.88 261.674667 58.88 512 261.674667 965.12 512 965.12z m-5.888-297.173333L329.685333 760.746667l33.706667-196.437334-142.72-139.093333 197.248-28.714667 88.192-178.730666 88.192 178.773333 197.248 28.629333-142.72 139.093334 33.706667 196.48-176.426667-92.757334z" fill="#FFFFFF" p-id="12675"></path></svg>