<?xml version="1.0" standalone="no"?><!DOCTYPE svg PUBLIC "-//W3C//DTD SVG 1.1//EN" "http://www.w3.org/Graphics/SVG/1.1/DTD/svg11.dtd"><svg t="1753771323989" class="icon" viewBox="0 0 1024 1024" version="1.1" xmlns="http://www.w3.org/2000/svg" p-id="14671" xmlns:xlink="http://www.w3.org/1999/xlink" width="200" height="200"><path d="M533.902277 341.70882l46.89007 76.324928 126.535604 30.522135L622.882724 547.654869l10.079357 129.91498-120.44293-49.730706-120.442931 49.730706 10.079357-129.91498-84.445227-99.098986 126.535604-30.522135 68.273197-111.137402 21.392921 34.822269z m9.481844 111.352898l-30.86497-50.240061-36.242587 58.987258-67.55814 16.299369 45.05835 52.874995-5.36782 69.154773 64.110197-26.466883 64.110197 26.466883-5.367821-69.154773 45.058351-52.874995-67.567936-16.299369-5.367821-8.737402z" p-id="14672" fill="#ffffff"></path><path d="M512 224.890147c79.273312 0 151.053224 32.138359 203.017257 84.092596 51.954238 51.954238 84.092596 123.73415 84.092596 203.017257 0 79.273312-32.138359 151.053224-84.092596 203.017257-51.954238 51.954238-123.73415 84.092596-203.017257 84.092596-79.273312 0-151.053224-32.138359-203.017257-84.092596-51.954238-51.954238-84.092596-123.73415-84.092596-203.017257 0-79.273312 32.138359-151.053224 84.092596-203.017257 51.954238-51.954238 123.73415-84.092596 203.017257-84.092596z m158.321332 128.788521c-40.513335-40.513335-96.493438-65.569696-158.321332-65.569695-61.827894 0-117.807997 25.066156-158.321332 65.569695-40.513335 40.513335-65.569696 96.493438-65.569695 158.321332 0 61.827894 25.066156 117.807997 65.569695 158.321332 40.513335 40.513335 96.493438 65.569696 158.321332 65.569695 61.827894 0 117.807997-25.056361 158.321332-65.569695s65.569696-96.493438 65.569695-158.321332c0-61.827894-25.056361-117.807997-65.569695-158.321332z" p-id="14673" fill="#ffffff"></path><path d="M512 117.455366c108.943256 0 207.581863 44.166979 278.989554 115.564875C862.38745 304.418137 906.554429 403.056744 906.554429 512s-44.166979 207.581863-115.564875 278.989554C719.591659 862.38745 620.953051 906.554429 512 906.554429c-108.943256 0-207.581863-44.166979-278.979759-115.564875C161.622346 719.591659 117.455366 620.953051 117.455366 512c0-108.943256 44.166979-207.581863 115.564875-278.979759C304.418137 161.622346 403.056744 117.455366 512 117.455366z m234.293629 160.2608c-59.956993-59.956993-142.785996-97.041974-234.293629-97.041974-91.497838 0-174.336637 37.084982-234.293629 97.041974-59.956993 59.956993-97.041974 142.785996-97.041975 234.293629 0 91.497838 37.084982 174.336637 97.041975 234.29363 59.956993 59.956993 142.795791 97.041974 234.293629 97.041974s174.336637-37.084982 234.293629-97.041974c59.956993-59.956993 97.041974-142.795791 97.041975-234.29363s-37.084982-174.336637-97.041975-234.293629z" p-id="14674" fill="#ffffff"></path><path d="M512 0c141.375474 0 269.380371 57.312263 362.034054 149.965946 92.653683 92.653683 149.965946 220.65858 149.965946 362.034054s-57.312263 269.380371-149.965946 362.034054c-92.653683 92.653683-220.65858 149.965946-362.034054 149.965946s-269.380371-57.312263-362.034054-149.965946C57.312263 781.380371 0 653.375474 0 512s57.312263-269.380371 149.965946-362.034054C242.619629 57.312263 370.624526 0 512 0z m317.338129 194.661871C748.125349 113.449091 635.930055 63.218825 512 63.218825c-123.930055 0-236.135144 50.230266-317.338129 131.443046C113.449091 275.874651 63.218825 388.069945 63.218825 512c0 123.930055 50.230266 236.135144 131.443046 317.338129 81.21278 81.21278 193.408073 131.443046 317.338129 131.443046 123.930055 0 236.135144-50.230266 317.338129-131.443046 81.21278-81.21278 131.443046-193.408073 131.443046-317.338129 0-123.930055-50.230266-236.135144-131.443046-317.338129z" p-id="14675" fill="#ffffff"></path></svg>